/* XPM */
static char *_8a28ec8bd454b85eacd42166390fa70b5yDPPGDpr0jsV9o[] = {
/* columns rows colors chars-per-pixel */
"64 64 167 2 ",
"   c #FD9E00",
".  c #FDA401",
"X  c #FCA60B",
"o  c #FDA90D",
"O  c #FBA611",
"+  c #FCAA13",
"@  c #FBAB1C",
"#  c #FBAE23",
"$  c #FCB023",
"%  c #FBB12A",
"&  c #FAB434",
"*  c #F9B63C",
"=  c #FCB93E",
"-  c #F8B741",
";  c #F7B847",
":  c #FBBA43",
">  c #F7BA4B",
",  c #FABC4A",
"<  c #F6BD55",
"1  c #F8BE51",
"2  c #FEC04F",
"3  c #FDC153",
"4  c #FBC35A",
"5  c #F5C062",
"6  c #FAC562",
"7  c #F6C56A",
"8  c #F8C668",
"9  c #FCC96C",
"0  c #F4C773",
"q  c #F4C877",
"w  c #FACB72",
"e  c #F5CA7A",
"r  c #FACE7B",
"t  c #F5CC82",
"y  c #F2CE8D",
"u  c #FED382",
"i  c #F6D18D",
"p  c #FBD58C",
"a  c #F5D394",
"s  c #FCD791",
"d  c #FCD996",
"f  c #F1D39D",
"g  c #FAD99B",
"h  c #EFD7AB",
"j  c #FEDEA2",
"k  c #F3DAAB",
"l  c #F9DEA9",
"z  c #EFDEBF",
"x  c #F4DEB4",
"c  c #FEE1A7",
"v  c #FBE0AD",
"b  c #F7E1B5",
"n  c #FBE3B4",
"m  c #F6E2BE",
"M  c #FBE6BB",
"N  c #F4E3C2",
"B  c #F9E6C2",
"V  c #FDEAC5",
"C  c #F5E7CD",
"Z  c #F6E8CD",
"A  c #FBEBCB",
"S  c #EFE6D2",
"D  c #ECE6DA",
"F  c #EFE9DD",
"G  c #F1E6D1",
"H  c #F4E9D2",
"J  c #F9EDD5",
"K  c #F4ECDE",
"L  c #F8EED8",
"P  c #FCF2DD",
"I  c #E9E7E4",
"U  c #EBE9E6",
"Y  c #ECECEC",
"T  c #F2EEE4",
"R  c #F0EFEC",
"E  c #F6F1E5",
"W  c #FBF4E4",
"Q  c #F3F1ED",
"!  c #FAF6EA",
"~  c #FEFAED",
"^  c #EBEEF3",
"/  c #EEF0F5",
"(  c #EEF3FD",
")  c #EFFBFF",
"_  c #F5F5F5",
"`  c #F6F5F4",
"'  c #F7F7F5",
"]  c #F5F5F6",
"[  c #F6F6F6",
"{  c #F7F7F6",
"}  c gray97",
"|  c #F4F4F4",
" . c #F8F7F4",
".. c #F8F7F5",
"X. c #F8F7F6",
"o. c #F8F7F4",
"O. c #FFFCF3",
"+. c #F8F8F7",
"@. c #F9F8F7",
"#. c #FBFAF7",
"$. c #FAF9F6",
"%. c #F0F3F9",
"&. c #F3F5FB",
"*. c #F5F7F9",
"=. c #F6F7FA",
"-. c #F1F6FD",
";. c #F1F6FE",
":. c #F0F6FF",
">. c #F1F6FF",
",. c #F0F7FF",
"<. c #F2F7FF",
"1. c #F4F7FE",
"2. c #F4F6FA",
"3. c #F7F8FB",
"4. c #F1F8FF",
"5. c #F2F8FF",
"6. c #F5F8FC",
"7. c #F6F9FD",
"8. c #F6FBFC",
"9. c #F5F8FE",
"0. c #F5F9FE",
"q. c #F4F8FF",
"w. c #F6F9FF",
"e. c #F4FAFF",
"r. c #F6FBFF",
"t. c #F5FCFF",
"y. c #F6FDFF",
"u. c #F5FAFE",
"i. c #F8F8F8",
"p. c #F9F9F8",
"a. c #F9F9F9",
"s. c #FAF9F9",
"d. c #FBFBF9",
"f. c #F9FAFB",
"g. c gray98",
"h. c #FBFBFB",
"j. c #FCFBF8",
"k. c #FDFBF8",
"l. c #FCFBF9",
"z. c #FDFBF9",
"x. c #FCFBFA",
"c. c #FCFBFB",
"v. c #FBFCFB",
"b. c #FFFCF9",
"n. c #FDFCFA",
"m. c #F9FBFD",
"M. c #FAFBFC",
"N. c #FBFBFC",
"B. c #F8FCFF",
"V. c #F9FDFF",
"C. c #FAFCFE",
"Z. c #FAFDFF",
"A. c #F9FEFF",
"S. c #F9FFFF",
"D. c #FAFFFF",
"F. c #FBFFFF",
"G. c gray99",
"H. c #FDFDFD",
"J. c #FEFDFC",
"K. c #FFFFFD",
"L. c #FCFDFE",
"P. c #FCFFFF",
"I. c #FEFEFE",
"U. c #FFFFFE",
"Y. c #FEFFFF",
"T. c white",
"R. c #FCFCFC",
/* pixels */
"T.[ Y T.[ Y T.i.U T.i.U T.i.U i.i.U i.T.U i.T.U i.T.Y [ T.Y [ T.Y [ T.Y [ T.Y | T.Y | T.Y | T.| | T.| Y T.| Y T.| Y T.[ Y T.[ Y ",
"T.[ Y T.[ Y T.i.U T.i.U T.i.U i.i.U i.T.U i.T.U i.T.Y [ T.Y [ T.Y [ T.Y [ T.Y | T.Y | T.^ | T.| | T.| Y T.| Y T.| Y T.[ Y T.[ Y ",
"Y [ T.| [ T.| [ T.| | T.| | T.| | T.| | T.| | j.| Q j.[ | T.[ | i.[ Y i.[ Y i.[ Y i.i.Y i.i.Y i.i.Y i.i.Y i.i.Y [ i.Y [ i.Y [ T.",
"U [ T.U | T.Y | T.Y | T.Y / T.Y / T.| Y T.Q ^ T.&./ T.| U T.[ U T.[ U T.[ U T.i.U T.i.U T.i.U i.i.U i.T.U i.T.U i.T.U [ T.U [ T.",
"i.[ | i.[ | 3.[ | i.[ | [ [ | [ *.|  . .<.7.E m b B K 7.F.| [ i.| [ i.| [ i.| [ i.| [ i.[ [ i.[ [ i.[ [ i.[ | i.[ | i.[ | i.[ | ",
"T.[ U T.[ U T.3.U T.i.U T.i.U i.M.U i.T.k , + . . . X , M ^ *.T.U [ T.U | T.Y | T.Y | T.Y | T.Y Y T.| Y T.| Y T.| Y T.| U T.[ U ",
"[ [ [ [ [ [ [ [ [ [ [ [ [ [ [ [ | 7.! 3 .   . . . . .     1 ! 1.| [ [ [ [ [ [ [ [ [ [ [ [ [ [ [ [ [ [ [ [ [ [ [ [ [ [ [ [ [ [ [ ",
"U [ T.U | T.Y | T.Y | T.Y | T.Y / W %   . . . . . . . . .   # S T.[ U T.[ U T.i.U T.i.U T.i.U i.i.U i.T.U i.T.U i.T.U [ T.U [ T.",
"| [ i.| [ i.| [ i.| [ i.[ [ @.*.E %   . . . . . . . . . . .   % ! *.| i.[ | i.[ | i.[ | [ [ | [ [ | [ [ | [ i.| [ i.| [ i.| [ i.",
"T.[ U T.[ U T.i.U T.i.U T.i.U F.3   . .     . . . . . . . . .   ; 7.T.U | T.Y | T.Y | T.Y | T.Y Y T.| Y T.| Y T.| Y T.| U T.[ U ",
"i.[ | i.[ ^ i.[ | i.[ | i. .<.g   . . & r 6 X . . . . . . . . .   g F.Q [ i.| [ i.| [ i.| | i.| | i.| | i.[ | i.[ | i.[ | i.[ | ",
"U [ T.Y | T.Y | T.Y | T.Y | O.# . . 7 | T.<.N @ . . . . . . . . . # U T.[ U T.i.U T.i.U T.i.U T.T.U i.T.U i.T.U i.T.U [ T.U [ T.",
"Y [ T.Y [ T.| [ T.| | T.R <.d   . : <.| b.Q <.n . . . . . . . . .   i T. .Y T.i.Y T.i.Y i.i.Y i.i.Y i.i.Y i.T.Y i.T.Y [ T.Y [ T.",
"T.[ Y T.[ Y T.i.Y T.i.Y i.M.& . . k F.i.Y i.i./ & . . . . . . . . . & / [ T.Y | T.Y | T.| | T.| | T.| | T.| Y T.| Y T.[ Y T.[ Y ",
"T.[ Y T.[ Y T.i.U T.i.U F.A . . + D M.j.U i.j.( e   . . . . . . . . . z 7.T.Y | T.Y | T.Y | T.| | T.| ^ T.| Y T.| Y T.[ Y T.[ Y ",
"Y [ T.| [ T.| [ T.| | j.4.t   . % v.| | T.| Q F.g   . . . . . . . .   p t.Y i.[ Y i.i.Y i.i.Y i.i.Y i.i.Y i.i.Y [ i.Y [ i.Y [ T.",
"U [ T.U | T.Y | T.Y | T.( ; . . % T.| Y T.| Y T.g   . . . . . . . .   3 7.U T.i.U T.i.U T.i.U i.i.U i.T.U i.T.U i.T.U [ T.U [ T.",
"i.[ | i.[ | i.[ | i.[ | | $ . . + T 3.@.| [  .4.r   . . . . . . . . . # | i.| [ i.| [ i.| [ i.| | i.[ | i.[ | i.[ | i.[ | i.[ | ",
"T.[ U T.[ U T.i.U T.i.Y E o . . . h F.j.U i.b.^ * . . . . . . . . . . X K T.Y | T.Y | T.Y | T.Y Y T.| Y T.| Y T.| Y T.| U T.[ U ",
"[ [ [ [ [ [ [ [ [ [ | 7.Z . . . . : 7.[ | Q t.b . . . . . . . . . . . . Z 7.[ [ [ [ [ [ [ [ [ [ [ [ [ [ [ [ [ [ [ [ [ [ [ [ [ [ ",
"U [ T.U | T.Y | T.Y Q T.m . . . . . e ( T.<.S $ . . . . . . . . . . . . N ^ T.i.U T.i.U T.i.U i.i.U i.T.U i.T.U i.T.U [ T.U [ T.",
"[ [ i.[ [ i.[ [ i.[ | F.m . . . . . . : s w + . . . . . . . . . . . . . m 7. .[ [ i.[ [ [ [ [ [ [ [ [ [ [ [ i.[ [ i.[ [ i.[ [ i.",
"T.[ U T.[ U T.i.U T.@.^ V . . . . . . .     . . . . . . . . . . . . . . B T.Y | T.Y | T.Y | T.Y Y T.| Y T.| Y T.| Y T.| U T.[ U ",
"i.[ | i.[ | i.[ | i.[ %.J . . . . . . . . . . . . . . . . . . . . . . . H F.| [ i.| [ i.| | i.| | i.| | i.[ | i.[ | i.[ | i.[ | ",
"U [ T.Y [ T.Y | T.Y | T.K + . . . . . . . . . . . . . . . . . . . . . + E Y T.i.U T.i.U T.i.U T.T.U i.T.U i.T.U i.T.Y [ T.U [ T.",
"Y [ T.Y [ T.| [ T.| | T.| % . . . . . . . . . . . . . . . . . . . . . & *.Y i.[ Y i.i.Y i.i.Y i.i.Y i.i.Y i.i.Y [ i.Y [ T.Y [ T.",
"T.[ Y T.[ Y T.i.Y T.i.Y F.4   . . . . . . . . . . . . . . . . . . .   < 7.b.Y [ T.Y | T.| | T.| | T.| | T.| Y T.[ Y T.[ Y T.[ Y ",
"T.[ Y T.[ Y T.i.U T.i.U F.g   . . . . . . . . . . . . . . . . . . .   a 4.b.Y | T.Y | T.Y | T.| | T.| Y T.| Y T.| Y T.[ Y T.[ Y ",
"Y [ T.| [ T.| [ T.| | T.&.H X . . . . . . . . . . . . . . . . . . . X P 7./ i.@.Y M.i.^ i.i.Y i.i.Y i.i.^ i.i.^ i.i.Y [ T.Y [ T.",
"U [ T.Y [ T.Y | T.Y | T.Y &.2   . . . . . . . . . . . . . . . . . . > T.o.y b.i.U T.i.U T.M.U T.T.U i.T.U i.T.U i.T.U [ T.U [ T.",
"i.[ | i.[ | i.[ | i.[ |  .t.k . . . . . . . . . . . . . . . . . . . n 4.H . a 7.@.| [ i.| [ i.| | i.[ | i.[ | i.[ | i.[ | i.[ | ",
"T.[ U T.[ U T.i.U T.i.U T.i.^ * . . . . . . . . . . . . . . . .   : T.( q   O Z T.Y | T.Y | T.Y Y T.| Y T.| Y T.| Y T.| U T.[ U ",
"[ [ [ [ [ [ [ [ [ [ [ [ [ | 7.N . . . . . . . . . . . . . . . . . B 7.E @ . . = *.[ [ [ [ [ [ [ [ [ [ [ [ [ [ [ [ [ [ [ [ [ [ [ ",
"U [ T.U | T.Y | T.Y | T.Y | T.( q   . . . . . . . . . . . . .   u 7.U T.:   .   q T.@.U T.i.U i.i.U i.T.U i.T.U i.T.U [ T.U [ T.",
"[ [ [ [ [ [ [ [ [ [ [ [ [ [ [ [ <.4   . . . . . . . . . . .   4 M.[ | 7.L O . . . M 7.| [ [ [ [ [ [ [ [ [ [ [ [ [ [ [ [ [ [ [ [ ",
"T.[ U T.[ U T.i.U T.i.U T.i.U i.F.^ 6   . . . . . . . . .   6 T.U | O.U <.j   . . # E T.Y | T.Y Y T.| Y T.| Y T.| Y T.| U T.[ U ",
"i.[ | i.[ | i.[ | i.i.| i.i.| i.@.| t.g +   . . . .     + a 7.@.4.7 4 4.Q F.4   .   6 F.| [ i.| | i.[ | T.[ | i.[ | i.[ | i.[ | ",
"U [ T.Y [ T.Y | T.Y | T.Y | T.| | T.Q ( ~ i - $ + @ , i F T.| ( p .   c 7.U ! # . . . f T.@.U T.T.U i.T.U i.T.U i.T.U [ T.U [ T.",
"Y [ T.Y [ T.| [ T./ | T.| | T.| | T.| Q T.4.&.#.T R T.7./ T.*.0 . . . + K / F.n . . . + P M.Y i.i.Y i.i.Y i.i.Y [ i.Y [ T.Y [ T.",
"T.[ Y T.[ Y T.i.U T.i.U T.i.U i.i.U i.T.U @.b.Y i.T.Y | T.N *   . . .   , T.Y 4.r   .   ; &.T.| | T.| ^ T.| Y T.| Y T.[ Y T.[ Y ",
"T.[ Y T.[ Y T.i.U T.i.U F.i.U i.i.U i.T.U i.T.U @.T.Y 3.~ +   . . . . .   p ( Q b.& . .   i T.R | T.| Y T.| Y T.| Y T.[ Y T.[ Y ",
"Y [ T.Y [ T.| [ T.| | T.| | T.| | T.| | T.| / T.[ | T.*.K + . . . . . . . X A 7./ A X . . X N F.@.Y i.i.Y i.i.Y [ i.Y [ T.Y [ T.",
"U [ T.Y [ T.Y | T.Y | T.Y | T.| | T.| Y T.| Y T.| Y T.*.D + . . . . . . . . & | U T.s   . . & #.F.U i.T.U i.T.U i.T.U [ T.U [ T.",
"i.[ | i.[ | i.[ | i.i.| i.i.| i.i.| i.i.| i.i.| [ i.| *.o.@   . . . . . . .   9 F.Q 7.,   .   w 4.@.[ | i.[ | i.[ | i.[ | i.[ | ",
"T.[ U T.[ U T.i.U T.i.U T.i.U i.i.U i.T.U i.T.U i.T.U [ T.y & = * @ . . . . . . n / | W @ . . . k T.R Y T.| Y T.| Y T.| U T.[ U ",
"[ [ [ [ [ [ [ [ [ [ [ [ [ [ [ [ [ [ [ [ [ [ [ [ [ [ [ [ [ 7.7.*.t.r   . . . . . @ E *.7.l   . . # E *.[ [ [ [ [ [ *.[ [ [ [ [ [ ",
"U [ T.U | T.Y | T.Y | T.Y | T.Y Y T.| Y T.| Y T.| Y T.| U T.| U T.u   . . . . .   4 M.I F.9   .   < F.b.U i.T.U i.T.U [ T.U [ T.",
"[ [ [ [ [ [ [ [ [ [ [ [ [ [ [ [ [ [ [ [ [ [ [ [ [ [ [ [ [ [ [ | t.r   . . . . . .   g 7.[ ! % . .   g 7.| [ [ [ [ [ [ [ [ [ [ [ ",
"T.[ U T.[ U T.i.U T.i.U F.i.U i.i.U i.T.U i.T.U i.T.U [ T.U [ b.( q   . . . . . . . X P ^ | V . . . @ T T.| Y T.| Y T.| U T.[ U ",
"i.[ | i.[ | i.[ | i.[ | i.[ | i.i.| [ i.| [ i.| [ i.| [ i.| [ @.4.e   . . . . . . .   = *.Q F.r   . . C F.| | i.[ | i.[ | i.[ | ",
"U [ T.Y [ T.Y | T.Y | T.Y | T.| | T.| Y T.| Y T.| Y T.[ Y T.[ Y T.B . . . . . . . . .   u F.U J . . . B ^ @.T.U i.T.Y *.T.U [ T.",
"Y [ T.| [ T.| [ T.| | T.| | T.| | T.| | T.[ | T.[ | T.[ | T.[ | b.3.G A Z x o . . . . . . M ) Z . . . n (  .i.Y i.i.Y [ T.Y [ T.",
"T.[ Y T.[ Y T.i.U T.i.U T.i.U i.i.U i.T.U i.T.U i.T.Y [ T.Y [ T.Y [ T./ 7.~ + . . . . . . # M , . . . x T.Q Y T.| Y T.[ Y T.[ Y ",
"T.[ Y T.[ Y T.i.Y T.i.Y T.i.Y i.i.Y i.T.Y i.T.Y i.T.Y [ T.Y [ T.Y [ T.Y [ ~ + . . . . . . .   . . . . x T.| Y T.[ Y T.[ Y T.[ Y ",
"Y [ T.Y [ T.| [ T.| | T.| | T.| | T.| | T.| | T.[ | T.[ Y T.[ Y T.[ Y b.3.F + . . . . . . . . . . . . A (  .i.Y [ i.Y [ T.Y [ T.",
"U [ T.Y [ T.Y | T.Y | T.Y | T.| | T.| Y T.| Y T.| Y T.[ Y T.[ Y T.[ U T.7.D + . . . . . . . . . . . o P ^ i.T.U i.T.U [ T.U [ T.",
"i.[ | i.[ | i.[ | i.[ | i.i.| i.i.| i.i.| [ i.| [ i.| [ i.| [ i.| [ i.| [ i.%       . . . . . . . . # Q M.| | i.[ | i.[ | i.[ | ",
"T.[ U T.[ U T.i.U T.i.U T.i.U i.i.U i.T.U i.T.U i.T.U [ T.U [ T.U [ T.U | T.x 8 w 0 > . . . . . .   5 ( T.| Y T.| Y T.| U T.[ U ",
"[ [ i.[ [ i.[ [ i.[ [ i.[ [ i.[ [ i.[ [ i.[ [ i.[ | i.[ [ i.[ [ i.[ [ i.[ | 7.t.7.t.3.> . . . . . > E 3.| [ i.[ [ i.[ [ i.[ [ i.",
"U [ T.U | T.Y | T.Y | T.Y | T.Y Y T.| Y T.| Y T.| Y T.| U T.[ U T.[ U T.[ U T. .I b.i.U A v f M P ^ F.b.U i.T.U i.T.U [ T.U [ T.",
"[ [ [ [ [ [ [ [ [ [ [ [ [ [ [ [ [ [ [ [ [ [ [ [ [ [ [ [ [ [ [ [ [ [ [ [ [ [ [ [ [ [ [ [ 7.7.7.7.7.| [ [ [ [ [ [ [ [ [ [ [ [ [ [ ",
"T.[ U T.[ U T.i.U T.i.U T.i.U i.i.U i.T.U i.T.U i.T.U [ T.U [ T.U [ T.U | T.Y | T.Y | T.Y R T.Y Y T.| Y T.| Y T.| Y T.| U T.[ U ",
"i.[ | i.[ | i.[ | i.[ | [ [ | [ [ | [ [ | [ i.| [ i.| [ i.| [ i.| [ i.| [ i.| [ i.| [ i.[ [ i.[ [ i.[ [ i.[ | i.[ | i.[ | i.[ | ",
"U [ T.Y [ T.Y | T.Y | T.Y | T.| | T.| Y T.| Y T.| Y T.[ Y T.[ Y T.[ U T.[ U T.i.U T.i.U T.i.U T.T.U i.T.U i.T.U i.T.U [ T.U [ T."
};
