/* XPM */
static char *caveleiro[] = {
/* columns rows colors chars-per-pixel */
"64 64 6 1 ",
"  c black",
". c #272536",
"X c #3F4271",
"o c #847D85",
"O c gray80",
"+ c white",
/* pixels */
"++++++++++++++++++++++++++++++++++++++++++++++++++++++++++++++++",
"++++++++++++++++++++++++++++++++++++++++++++++++++++++++++++++++",
"+++++++++++++++++++    ++++++++++++++++++    +++++++++++++++++++",
"++++++++++++++++++ +++   ++++++++++++++   +++ ++++++++++++++++++",
"+++++++++++++++++ ++O ++ ++++++++++++++ ++ O++ +++++++++++++++++",
"+++++++++++++++++ +OOOO ++++++++++++++++ OOOO+ +++++++++++++++++",
"++++++++++++++++ ++OOO ++++++++++++++++++ OOO++ ++++++++++++++++",
"++++++++++++++++ +OOO ++++++++++++++++++++ OOO+ ++++++++++++++++",
"++++++++++++++++ +OOO ++++++++++++++++++++ OOO+ ++++++++++++++++",
"++++++++++++++++ +OOO ++++++++++++++++++++ OOO+ ++++++++++++++++",
"++++++++++++++++ +OOO ++++++++++++++++++++ OOO+ ++++++++++++++++",
"++++++++++++++++ ++OOO +++++++    +++++++ OOO++ ++++++++++++++++",
"+++++++++++++++++ +OOOO ++    ++++    ++ OOOO+ +++++++++++++++++",
"+++++++++++++++++ ++OOOO  ++++OOOO++++  OOOO++ +++++++++++++++++",
"++++++++++++++++++ +OOOO++OOOOOOOOOOOO++OOOO+ ++++++++++++++++++",
"+++++++++++++++++++ +OOOOOOOOOOOOOOOOOOOOOO+ +++++++++++++++++++",
"++++++++++++++++++++ +OOOOOOOOOOOOOOOOOOOO+ ++++++++++++++++++++",
"++++++++++++++++++++ +OOOOOOOOOOOOOOOOOOOO+ ++++++++++++++++++++",
"++++++++++++++++++++ +OOOOOOOOOOOOOOOOOOOO+ ++++++++++++++++++++",
"++++++++++++++++++++ +OOO..OOOOOOOOOO..OOO+ ++++++++++++++++++++",
"++++++++++++++++++++ +OO.  .OOOOOOOO.  .OO+ ++++++++++++++++++++",
"++++++++++++++++++++ +O.    .OOOOOO.    .O+ ++++++++++++++++++++",
"++++++++++++++++++++ +O.    .OOOOOO.    .O+ ++++++++++++++++++++",
"++++++++++++++++++++ +O      OOOOOO      O+ ++++++++++++++++++++",
"+++++++++ ++++++ +++ +O      OOOOOO      O+ +++ ++++++ +++++++++",
"+++++++++ ++++++ +++ +O      OOOOOO      O+ +++ ++++++ +++++++++",
"+++++++++  ++++  +++ +O      OOOOOO      O+ +++  ++++  +++++++++",
"+++++++++  ++++  +++ +O      OOOOOO      O+ +++  ++++  +++++++++",
"+++++++++ X +++ X ++ +O      OOOOOO      O+ ++ X +++ X +++++++++",
"+++++ +++ X +++ X ++ +OO    OOOOOOOO    OO+ ++ X +++ X +++ +++++",
"+++++  ++ X ++ ..X ++ +OO  OOOOOOOOOO  OO+ ++ X.. ++ X ++  +++++",
"+++++ X + X ++ ...X + ++OOOOOOOOOOOOOOOO++ + X... ++ X + X +++++",
"+++++ X. ..X + ....X   ++++OOOOOOOOOO++++   X.... + X.. X. +++++",
"++++++ X...X + .....XXX    ++++++++++    XXX..... + X..X. ++++++",
"++++++ X....X .......... ..          .. X......... X..... ++++++",
"++++++ X.. ..X ........ ................ ........ X...... ++++++",
"++++++ X.. ...X  ....  .................X  ....  X....... ++++++",
"+++++++ X.. ...XX    ....................XX    XX.... .. +++++++",
"+++++++ X........XX........... ............XXXX...... .. +++++++",
"++++++++ X..................  .........  ........... .. ++++++++",
"++++++++ X.........................        ............ ++++++++",
"+++++++++ X....................              ......... +++++++++",
"++++++++++ XX.................                 ...... ++++++++++",
"+++++++++ .  ................           ++       ..   ++++++++++",
"+++++++++ .................             +++++        + +++++++++",
"++++++++ X.......   ....                ++++++++   o+++ ++++++++",
"++++++++ .....   .......                +++++++  oooo+++ +++++++",
"+++++++ X..   .......                    ++++++++  oooo++ ++++++",
"+++++++    +++ ...   ++                  ++++++++++  ooo++ +++++",
"+++++++ ++++++    +++++                  ++++++++++++  ooo+ ++++",
"++++++++++++++ ++++++++                  ++++++++++++++  oo+ +++",
"++++++++++++++++++++++                    +++++++++++++++  o+ ++",
"++++++++++++++++++++++                    +++++++++++++++++  + +",
"++++++++++++++++++++++        ++++        +++++++++++++++++++  +",
"++++++++++++++++++++++      ++++++++      ++++++++++++++++++++++",
"+++++++++++++++++++++      ++++++++++      +++++++++++++++++++++",
"+++++++++++++++++++++     ++++++++++++     +++++++++++++++++++++",
"+++++++++++++++++++++     ++++++++++++     +++++++++++++++++++++",
"+++++++++++++++++++++    ++++++++++++++    +++++++++++++++++++++",
"+++++++++++++++++++++    ++++++++++++++    +++++++++++++++++++++",
"+++++++++++++++++++++   ++++++++++++++++   +++++++++++++++++++++",
"+++++++++++++++++++++   ++++++++++++++++   +++++++++++++++++++++",
"+++++++++++++++++++++  ++++++++++++++++++  +++++++++++++++++++++",
"++++++++++++++++++++++++++++++++++++++++++++++++++++++++++++++++"
};
