/* XPM */
static char *a24e38c9a9d4465b8666b91f1a90a490R8OnA0bWv0uzhg5g[] = {
/* columns rows colors chars-per-pixel */
"64 64 155 2 ",
"   c white",
".  c #9F3034",
"X  c #A12F33",
"o  c #A23236",
"O  c #A63936",
"+  c #A83D35",
"@  c #A63438",
"#  c #A9363A",
"$  c #A7393E",
"%  c #AE393D",
"&  c #B13B3E",
"*  c #AB4235",
"=  c #B34F34",
"-  c #B75734",
";  c #B85834",
":  c #BC6A35",
">  c #C36C33",
",  c #C97632",
"<  c #CC7A32",
"1  c #AA3C43",
"2  c #B53D41",
"3  c #B93F42",
"4  c #AD444B",
"5  c #BD4145",
"6  c #B14750",
"7  c #B34954",
"8  c #B64E5A",
"9  c #B9515E",
"0  c #B65A5C",
"q  c #BB5462",
"w  c #C14447",
"e  c #C44649",
"r  c #C8474B",
"t  c #CB4A4D",
"y  c #D04C4F",
"u  c #D34E51",
"i  c #D75053",
"p  c #DB5256",
"a  c #DF5558",
"s  c #E25659",
"d  c #E5585B",
"f  c #C26642",
"g  c #C57147",
"h  c #CA5B68",
"j  c #C35F70",
"k  c #C66374",
"l  c #C9677A",
"z  c #C57578",
"x  c #C67B7B",
"c  c #C37373",
"v  c #E66067",
"b  c #E76E7B",
"n  c #DA942F",
"m  c #C78B33",
"M  c #C98D34",
"N  c #C98D39",
"B  c #D18432",
"V  c #D58C31",
"C  c #CD933D",
"Z  c #D39533",
"A  c #DA9631",
"S  c #D59933",
"D  c #DC9C32",
"F  c #D4993A",
"G  c #E09E30",
"H  c #DDA231",
"J  c #D8A53B",
"K  c #DEAF3C",
"L  c #DCAC34",
"P  c #E2A22F",
"I  c #E2A230",
"U  c #E3AB31",
"Y  c #E1A03F",
"T  c #E4B032",
"R  c #E6BB33",
"E  c #E7C134",
"W  c #E8C335",
"Q  c #CD9346",
"!  c #CD9549",
"~  c #D1964C",
"^  c #D39851",
"/  c #DBA041",
"(  c #E3A340",
")  c #E2AF41",
"_  c #D79F65",
"`  c #D89E62",
"'  c #D89F6D",
"]  c #D6A468",
"[  c #DCAE69",
"{  c #DAA571",
"}  c #DDA578",
"|  c #DBAD78",
" . c #E1AB6D",
".. c #CD6D82",
"X. c #D07086",
"o. c #D3758B",
"O. c #D5788F",
"+. c #DE7A8F",
"@. c #D77B92",
"#. c #D97D96",
"$. c #DB7F99",
"%. c #E87585",
"&. c #CA8182",
"*. c #CF8B8B",
"=. c #DE849F",
"-. c #D9A09F",
";. c #E0AB81",
":. c #E1AA89",
">. c #E4B684",
",. c #E8B682",
"<. c #E1B88F",
"1. c #E6B695",
"2. c #E7B79A",
"3. c #EBB79C",
"4. c #EBBA95",
"5. c #DE91A2",
"6. c #E086A2",
"7. c #E289A6",
"8. c #E58DAA",
"9. c #E891AF",
"0. c #E491AC",
"q. c #EA94B4",
"w. c #E89EB3",
"e. c #C2B4B9",
"r. c #CBB8BD",
"t. c #ECBEA6",
"y. c #EDBFAA",
"u. c #EFA9B9",
"i. c #E2B3B0",
"p. c #EFB4BD",
"a. c #E7C1A2",
"s. c #EAC6AB",
"d. c #EFC4B3",
"f. c #ECC5BE",
"g. c #EBCBB9",
"h. c #F3C0B9",
"j. c #F2C9BC",
"k. c #DEC8C7",
"l. c #E1C9C7",
"z. c #EDC3C3",
"x. c #F2C2C6",
"c. c #F2C8C3",
"v. c #F3C7CA",
"b. c #F3CDCE",
"n. c #EFD0C7",
"m. c #EBD0CF",
"M. c #F0D1C1",
"N. c #F4D3CC",
"B. c #E4D1D2",
"V. c #F6D7D3",
"C. c #F6DBD6",
"Z. c #F6DAD5",
"A. c #F7DCD7",
"S. c #F2D8D3",
"D. c #F8DCD6",
/* pixels */
"                                                          U H S Z S U                                                           ",
"                                                      U R R L C C J R E R                                                       ",
"                                                      R R ) ,.t.t.3. .K R R                                                     ",
"                                                    U T H >.C.C.C.N.h.` H U I                                                   ",
"                                                  I I I D a.n.N.C.N.f.} Z I I                                                   ",
"                                                I I I P / g.e.l.D.k.r.2.F P I                                                   ",
"                                              T R R R R K s.B.S.C.S.m.1.F I I I                                                 ",
"                                              E W R E E R [ V.v.p.b.j.^ D U U U U                                               ",
"                                              U U U U U T F <.x.u.c.{ Z R E E E E R                                             ",
"                                              I I I I I D M Q d.N.3.N Z R E R R R R                                             ",
"                                            I I I D S Z M m ] N.N.d.~ M S H I U U U                                             ",
"                                            I D G S N N ! | M.C.C.V.y.;._ ~ D D D I                                             ",
"                                          G V : , A ' s.M.C.C.C.C.C.C.C.N.4.( V A A                                             ",
"                                          * + O , P Y :.b.V.C.A.A.C.V.z.&.g G A < ,                                             ",
"                                        + o o O < A n f 0.5.c &.x z w.@.o O = ; B G A ,                                         ",
"                                      o o o o o O * * $ 6.#.o X X 1 8.o.o o o o > V V -                                         ",
"                                      o o o o o o o o @ @.8.4 o o 7 q...o o o o o O O o o                                       ",
"                                      o o o o o o o     k q.k o o l q.q   o o o o o o o o                                       ",
"                                      o o o o o o o       7.6.1 $ =.7.4     o o o o o o @                                       ",
"                                        *.4 o o o         $.q.9 6 9.@.        o o o $ x i.                                      ",
"                                      &.f.                  q.X.j q.o.          o     C.A.                                      ",
"                                    o o                   1 $.6.O.8.8                   -.0                                     ",
"                                  o o                     o l q.q.=.1 e d                 o o o                                 ",
"                                o o                 d d s t h q.q.+.u s d d d               o o o                               ",
"                              o o               d d d d d d d b %.v d d d d d d d             o o o                             ",
"                          o o                 d d d d d d d d d d d d d d d d d d d               o o                           ",
"                      o o o                 d d d d d d d d d d d d d d d d d d d d d               o o                         ",
"                    o o o                 d d d d d d d d d d d d d d d d d d d d d d d               o o o                     ",
"                    o                   d d d d d d d d d d d d d d d d d d d d d d d d d                 o o                   ",
"                                      d d d d d d d d d d d d d d d d d d d d d d d d d d                   o                   ",
"                                    d d d d d d d d d d d d d d d d d d d d d d d d d d d d                                     ",
"                                  d d d d d d d d d d d d d d d d d d d d d d d d d d d d d d                                   ",
"                                  d d d d d d d d d d d d d d d d d d d d d d d d d d d d d d d                                 ",
"                                d d d d d d d d d d d d d d d d d d d d d d d d d d d d d d d d d                               ",
"                              d d d d d d d d d d d d d d d d d d d d d d d d d d d d d d d d d d s                             ",
"                            e s d d d d d d d d d d d d d d d d d d d d d d d d d d d d d d d d p 5 o                           ",
"                          o @ 5 p d d d d d d d d d d d d d d d d d d d d d d d d d d d d d d i & o o o                         ",
"                          o o o # w p d d d d d d d d d d d d d d d d d d d d d d d d d d d a % o o w e                         ",
"                        & 5 3 # o o % u d d d s u i a s d d d d d d d d d d d d d d d d d d p # @ # 3 a d                       ",
"                      u w a 5 5 % # o @ 5 u p w o @ # 3 t p p p s d d d d d d d d d d d d d s w & 3 & u d d                     ",
"                      d s d e 3 w % 3 @ o o # # # @ # o o # # # % e t t u i p p u u t t w 3 & # % e p s d d d                   ",
"                    d d d d 5 w p e w 3 # % o % 3 % r 3 5 # & o o o o o o @ @ @ @ o o o o o o o # % p d d d d                   ",
"                  d d d d d s s s 3 & e 3 5 & @ y i e & t t 5 % 5 # & o # @ o # @ O @ # @ 3 & & # u d d d d d d                 ",
"                d d d d d d d d d u u s 3 3 p u s d p u d s 3 % t t w @ & 3 # 3 3 @ 3 w & 3 & % w s d d d d d d d               ",
"              d d d d d d d d d d d d d u p d d d d d d d d a p d d a u # % e % & t w # u p 2 3 p d d d d d d d p 3             ",
"            & p d d d d d d d d d d d d d d d d d d d d d d d d d d d s e w a 5 w s y w p d a s d d d d d d d t # o o           ",
"          o o & u s d d d d d d d d d d d d d d d d d d d d d d d d d d d d d d d d d d d d d d d d d d d s w O o o o o         ",
"        o o o o @ 3 u s d d d d d d d d d d d d d d d d d d d d d d d d d d d d d d d d d d d d d d d d s 5 o o o # 3 @         ",
"        o o @ o o o @ 5 p d d d d d d d d d d d d d d d d d d d d d d d d d d d d d d d d d d d d d d d u o o o o 5 s u s       ",
"      e % e w % o o o o % t s d d d d s p p a s d d d d d d d d d d d d d d d d d d d d d d d d d d d d u @ o & % @ t d d d     ",
"  d p % u p # 3 5 o o o o o 5 i s d d r # # # & 5 t a d d d d d d d d d d d d d d d d d d d d d d d d d d 5 # # % o & s d d d   ",
"d d s r a d u e 3 w 3 o o o o @ 3 e t & o o o o o o % 5 t t e r i d d d d d d d d d d d d d d d d d s p u e 3 w t r w s d d d d ",
"d d d d d d r @ e e o 3 w o o o o o o @ 3 o % % o o o o o o o o @ 5 e w e t u i p p p u u t t e 5 3 & # O o o 3 e p d d d d d d ",
"d d d d d d 3 o t i 3 y e w & @ @ o o & 5 o % u & 5 3 o & # o o o o o o o o o @ # # @ @ o o o o o o o o o o @ # o r d d d d     ",
"d d d d d d p t a d u 3 % 3 o & w % o @ e 5 3 u % e t O e 5 o & # o o o o o o o o o o o o o o o o o # # o # @ 5 w p d d         ",
"  d d d d d d d d d 5 . 3 p r 5 3 t @ o t d d u o 3 i u p & o t 5 o w 3 o 3 # # @ # # # @ # % # 3 o 2 e % 5 o # p d d           ",
"    d d d d d d d d a e y d t @ # p u u s d d a r p d d i @ o 5 e 5 u # o 3 & 5 @ % 5 5 # @ 3 5 e o O 5 # & 3 t s d             ",
"        d d d d d d d d d d u 3 e d d d d d d d d d d d s y t p d d s t 5 3 o 5 & & % 2 3 5 r % e t u w o o 5 d d               ",
"          d d d d d d d d d d s d d d d d d d d d d d d d d d d d d d d d 3 . # p t o @ u d w o # p d t 3 e i d d               ",
"              d d d d d d d d d d d d d d d d d d d d d d d d d d d d d d u 5 w s y & 5 p d t w t s d d d d d d d d             ",
"                    d d   d d d d d d d d d d d d d d d d d d d d d d d d d d d d d s d d d d d d d d d d d d d d d             ",
"                                d d d d       d d d d d d d d d d d d d d d d d d d d d d d d d d d d d d d d d                 ",
"                                                d d d d d d d d d d d d d d d d d d d d d d d                                   ",
"                                                    d d d d d d d       d d d d d                                               "
};
